<svg width="24" height="24" viewBox="0 0 24 24" fill="none" xmlns="http://www.w3.org/2000/svg">
<path d="M5.5 23C5.08334 23 4.729 22.854 4.437 22.562C4.145 22.27 3.99934 21.916 4 21.5V18.5C4 18.0833 4.146 17.729 4.438 17.437C4.73 17.145 5.084 16.9993 5.5 17H6.5V15H5.5C5.08334 15 4.729 14.854 4.437 14.562C4.145 14.27 3.99934 13.916 4 13.5V10.5C4 10.0833 4.146 9.729 4.438 9.437C4.73 9.145 5.084 8.99934 5.5 9H6.5V7H5.5C5.08334 7 4.729 6.854 4.437 6.562C4.145 6.27 3.99934 5.916 4 5.5V2.5C4 2.08334 4.146 1.729 4.438 1.437C4.73 1.145 5.084 0.999336 5.5 1H9.5C9.91667 1 10.271 1.146 10.563 1.438C10.855 1.73 11.0007 2.084 11 2.5V5.5C11 5.91667 10.854 6.271 10.562 6.563C10.27 6.855 9.916 7.00067 9.5 7H8.5V9H9.5C9.91667 9 10.271 9.146 10.563 9.438C10.855 9.73 11.0007 10.084 11 10.5V11H14V10.5C14 10.0833 14.146 9.729 14.438 9.437C14.73 9.145 15.084 8.99934 15.5 9H19.5C19.9167 9 20.271 9.146 20.563 9.438C20.855 9.73 21.0007 10.084 21 10.5V13.5C21 13.9167 20.854 14.271 20.562 14.563C20.27 14.855 19.916 15.0007 19.5 15H15.5C15.0833 15 14.729 14.854 14.437 14.562C14.145 14.27 13.9993 13.916 14 13.5V13H11V13.5C11 13.9167 10.854 14.271 10.562 14.563C10.27 14.855 9.916 15.0007 9.5 15H8.5V17H9.5C9.91667 17 10.271 17.146 10.563 17.438C10.855 17.73 11.0007 18.084 11 18.5V21.5C11 21.9167 10.854 22.271 10.562 22.563C10.27 22.855 9.916 23.0007 9.5 23H5.5ZM6 21H9V19H6V21ZM6 13H9V11H6V13ZM16 13H19V11H16V13ZM6 5H9V3H6V5Z" fill="black"/>
</svg>
