<svg width="24" height="24" viewBox="0 0 24 24" fill="none" xmlns="http://www.w3.org/2000/svg">
<path d="M7 15C7.28334 15 7.521 14.904 7.713 14.712C7.905 14.52 8.00067 14.2827 8 14V10C8 9.71667 7.904 9.479 7.712 9.287C7.52 9.095 7.28267 8.99934 7 9C6.71667 9 6.479 9.096 6.287 9.288C6.095 9.48 5.99934 9.71734 6 10V14C6 14.2833 6.096 14.521 6.288 14.713C6.48 14.905 6.71734 15.0007 7 15ZM12 15C12.2833 15 12.521 14.904 12.713 14.712C12.905 14.52 13.0007 14.2827 13 14V10C13 9.71667 12.904 9.479 12.712 9.287C12.52 9.095 12.2827 8.99934 12 9C11.7167 9 11.479 9.096 11.287 9.288C11.095 9.48 10.9993 9.71734 11 10V14C11 14.2833 11.096 14.521 11.288 14.713C11.48 14.905 11.7173 15.0007 12 15ZM17 15C17.2833 15 17.521 14.904 17.713 14.712C17.905 14.52 18.0007 14.2827 18 14V10C18 9.71667 17.904 9.479 17.712 9.287C17.52 9.095 17.2827 8.99934 17 9C16.7167 9 16.479 9.096 16.287 9.288C16.095 9.48 15.9993 9.71734 16 10V14C16 14.2833 16.096 14.521 16.288 14.713C16.48 14.905 16.7173 15.0007 17 15ZM4 17H20V7H4V17ZM4 19C3.45 19 2.979 18.804 2.587 18.412C2.195 18.02 1.99934 17.5493 2 17V7C2 6.45 2.196 5.979 2.588 5.587C2.98 5.195 3.45067 4.99934 4 5H5V4C5 3.71667 5.096 3.479 5.288 3.287C5.48 3.095 5.71734 2.99934 6 3C6.28334 3 6.521 3.096 6.713 3.288C6.905 3.48 7.00067 3.71734 7 4V5H11V4C11 3.71667 11.096 3.479 11.288 3.287C11.48 3.095 11.7173 2.99934 12 3C12.2833 3 12.521 3.096 12.713 3.288C12.905 3.48 13.0007 3.71734 13 4V5H17V4C17 3.71667 17.096 3.479 17.288 3.287C17.48 3.095 17.7173 2.99934 18 3C18.2833 3 18.521 3.096 18.713 3.288C18.905 3.48 19.0007 3.71734 19 4V5H20C20.55 5 21.021 5.196 21.413 5.588C21.805 5.98 22.0007 6.45067 22 7V17C22 17.55 21.804 18.021 21.412 18.413C21.02 18.805 20.5493 19.0007 20 19H19V20C19 20.2833 18.904 20.521 18.712 20.713C18.52 20.905 18.2827 21.0007 18 21C17.7167 21 17.479 20.904 17.287 20.712C17.095 20.52 16.9993 20.2827 17 20V19H13V20C13 20.2833 12.904 20.521 12.712 20.713C12.52 20.905 12.2827 21.0007 12 21C11.7167 21 11.479 20.904 11.287 20.712C11.095 20.52 10.9993 20.2827 11 20V19H7V20C7 20.2833 6.904 20.521 6.712 20.713C6.52 20.905 6.28267 21.0007 6 21C5.71667 21 5.479 20.904 5.287 20.712C5.095 20.52 4.99934 20.2827 5 20V19H4Z" fill="black"/>
</svg>
