<svg width="24" height="24" viewBox="0 0 24 24" fill="none" xmlns="http://www.w3.org/2000/svg">
<path d="M4 11V19H8V11H4ZM10 5V19H14V5H10ZM16 13V19H20V13H16ZM20 21H4C3.45 21 2.979 20.804 2.587 20.412C2.195 20.02 1.99934 19.5493 2 19V11C2 10.45 2.196 9.979 2.588 9.587C2.98 9.195 3.45067 8.99934 4 9H8V5C8 4.45 8.196 3.979 8.588 3.587C8.98 3.195 9.45067 2.99934 10 3H14C14.55 3 15.021 3.196 15.413 3.588C15.805 3.98 16.0007 4.45067 16 5V11H20C20.55 11 21.021 11.196 21.413 11.588C21.805 11.98 22.0007 12.4507 22 13V19C22 19.55 21.804 20.021 21.412 20.413C21.02 20.805 20.5493 21.0007 20 21Z" fill="black"/>
</svg>
